<?xml version="1.0" standalone="no"?>
<!DOCTYPE svg PUBLIC "-//W3C//DTD SVG 20010904//EN"
 "http://www.w3.org/TR/2001/REC-SVG-20010904/DTD/svg10.dtd">
<svg version="1.0" xmlns="http://www.w3.org/2000/svg"
 width="512.000000pt" height="512.000000pt" viewBox="0 0 512.000000 512.000000"
 preserveAspectRatio="xMidYMid meet">
<metadata>
Created by potrace 1.14, written by Peter Selinger 2001-2017
</metadata>
<g transform="translate(0.000000,512.000000) scale(0.100000,-0.100000)"
fill="#000000" stroke="none">
<path d="M2326 3843 c-1 -1 -148 -5 -327 -8 -635 -11 -1473 -38 -1529 -49
-147 -29 -275 -138 -320 -271 -17 -48 -17 -50 -30 -142 -11 -75 -14 -94 -25
-203 -3 -36 -8 -71 -10 -78 -28 -85 -27 -974 0 -1222 35 -313 76 -454 154
-531 123 -119 318 -65 536 147 44 43 82 78 85 77 3 -1 50 -4 105 -8 55 -4 123
-9 150 -11 201 -14 474 -19 1020 -19 690 1 1159 11 1720 40 39 2 143 6 233 10
l162 7 68 -69 c125 -126 220 -193 312 -220 147 -43 253 5 317 143 34 75 70
252 88 439 27 280 28 1106 1 1285 -3 14 -7 50 -10 80 -6 52 -12 97 -22 165
-10 66 -36 136 -68 184 -88 130 -192 180 -406 196 -41 3 -93 7 -115 10 -60 7
-357 24 -510 30 -343 13 -1570 27 -1579 18z"/>
</g>
</svg>
